<?xml version="1.0" encoding="UTF-8" standalone="no"?>
<!-- Created with Inkscape (http://www.inkscape.org/) -->

<svg
   width="32"
   height="32"
   viewBox="0 0 32 32"
   version="1.1"
   id="svg1"
   xml:space="preserve"
   xmlns="http://www.w3.org/2000/svg"
   xmlns:svg="http://www.w3.org/2000/svg"><defs
     id="defs1"><rect
       x="346.26614"
       y="525.71338"
       width="83.351234"
       height="83.565353"
       id="rect1" /></defs><g
     id="layer1"
     transform="matrix(1.8455294,0,0,1.8455294,-177.78059,-258.06111)"><circle
       style="fill:none;stroke:#000000;stroke-width:1;stroke-linecap:round;stroke-linejoin:round;stroke-dasharray:none;paint-order:stroke fill markers"
       id="path1"
       cx="105"
       cy="148.5"
       r="8.1695986" /><circle
       style="fill:none;stroke:#000000;stroke-width:1;stroke-linecap:round;stroke-linejoin:round;stroke-dasharray:none;paint-order:stroke fill markers"
       id="path2"
       cx="105"
       cy="148.5"
       r="5.4370122" /><path
       style="fill:none;stroke:#000000;stroke-width:1;stroke-linecap:round;stroke-linejoin:round;stroke-dasharray:none;paint-order:stroke fill markers"
       d="m 105,140.3304 v 2.73259 0 0"
       id="path3" /><path
       style="fill:none;stroke:#000000;stroke-width:1;stroke-linecap:round;stroke-linejoin:round;stroke-dasharray:none;paint-order:stroke fill markers"
       d="m 108.69242,152.49088 1.9332,1.9332"
       id="path4" /><path
       style="fill:#00ffff;stroke:#000000;stroke-width:0.220484;stroke-linecap:round;stroke-linejoin:round;stroke-dasharray:none;paint-order:stroke fill markers"
       d="m 110.02182,153.07939 -0.57296,-0.57512 0.30334,-0.40035 c 0.41748,-0.55098 0.85034,-1.45342 1.03147,-2.15044 0.13057,-0.50246 0.1516,-0.70471 0.1516,-1.45841 0,-0.75138 -0.021,-0.95506 -0.14889,-1.44124 -0.17169,-0.65288 -0.49981,-1.38582 -0.85956,-1.92003 -0.32153,-0.47745 -1.0881,-1.24402 -1.56555,-1.56555 -0.72515,-0.48833 -1.70511,-0.87007 -2.48306,-0.96727 l -0.32401,-0.0405 v -0.83916 c 0,-0.97023 -0.0782,-0.89071 0.73614,-0.74899 3.01785,0.52524 5.38715,2.76036 6.15011,5.8018 0.1806,0.71997 0.22275,2.16793 0.0868,2.98111 -0.19329,1.15596 -0.69497,2.34488 -1.37288,3.2536 -0.55468,0.74352 -0.46748,0.73809 -1.13253,0.0705 z"
       id="path5" /><path
       style="fill:#000080;stroke:#000000;stroke-width:0.220484;stroke-linecap:round;stroke-linejoin:round;stroke-dasharray:none;paint-order:stroke fill markers"
       d="m 104.28555,156.10311 c -3.39753,-0.30833 -6.224604,-2.9314 -6.809023,-6.3177 -0.117213,-0.67915 -0.114956,-1.90862 0.0048,-2.60567 0.53821,-3.13321 3.071483,-5.65796 6.228353,-6.20739 0.81427,-0.14171 0.73614,-0.22112 0.73614,0.7482 v 0.83836 l -0.30626,0.0392 c -1.91664,0.24544 -3.68964,1.56907 -4.544064,3.39238 -0.39492,0.84273 -0.530302,1.48054 -0.531625,2.50456 -0.0011,0.76172 0.01881,0.9506 0.152837,1.45841 0.44746,1.69537 1.533652,3.05835 3.058912,3.8384 0.9365,0.47894 1.64488,0.64723 2.7244,0.64723 1.27053,0 2.29239,-0.30604 3.34446,-1.00162 l 0.31098,-0.2056 0.57865,0.57648 c 0.31826,0.31707 0.57789,0.5901 0.57696,0.60674 -0.004,0.0747 -0.7549,0.56604 -1.29927,0.85033 -1.29756,0.67764 -2.77116,0.96971 -4.22623,0.83767 z"
       id="path6" /><path
       style="fill:#3771c8;stroke:#000000;stroke-width:0.220484;stroke-linecap:round;stroke-linejoin:round;stroke-dasharray:none;paint-order:stroke fill markers"
       d="m 110.02577,153.02503 -0.51374,-0.51614 0.33492,-0.49016 c 0.39902,-0.58399 0.72883,-1.27479 0.93932,-1.96748 0.14173,-0.46641 0.1538,-0.58851 0.1538,-1.55618 0,-0.97644 -0.0112,-1.08683 -0.15919,-1.57476 -0.20468,-0.67466 -0.54728,-1.40351 -0.87336,-1.85795 -0.2975,-0.41461 -1.1694,-1.27742 -1.55318,-1.53699 -0.58802,-0.3977 -1.49703,-0.77266 -2.16277,-0.89212 -0.73497,-0.13188 -0.65185,-0.0163 -0.62858,-0.87378 0.0112,-0.41305 0.0408,-0.77143 0.0658,-0.79641 0.0785,-0.0784 1.03008,0.0922 1.67263,0.29997 2.33122,0.75364 4.14217,2.57043 4.93166,4.94759 0.27802,0.83714 0.34126,1.37408 0.30547,2.59381 -0.0335,1.14029 -0.13624,1.64174 -0.53181,2.59452 -0.3875,0.93334 -1.17706,2.14221 -1.39917,2.14221 -0.0374,0 -0.29928,-0.23226 -0.58184,-0.51613 z"
       id="path7" /><path
       style="fill:#003380;stroke:#000000;stroke-width:0.220484;stroke-linecap:round;stroke-linejoin:round;stroke-dasharray:none;paint-order:stroke fill markers"
       d="m 103.83327,156.01993 c -3.15047,-0.50664 -5.7065,-2.98356 -6.298323,-6.1034 -0.136763,-0.72096 -0.121267,-2.23896 0.03046,-2.9835 0.448593,-2.20128 1.972837,-4.16763 4.056673,-5.23332 0.7337,-0.37522 2.02731,-0.75919 2.55773,-0.75919 0.16958,0 0.19751,0.0222 0.22954,0.1823 0.02,0.10027 0.0365,0.45289 0.0365,0.78361 0,0.67289 0.0339,0.62527 -0.49586,0.69744 -0.40101,0.0546 -1.15412,0.2982 -1.57508,0.50941 -1.28448,0.64447 -2.447302,1.91016 -2.948188,3.209 -0.309808,0.80336 -0.366172,1.1467 -0.366281,2.23113 -9e-5,0.9079 0.01318,1.03609 0.156927,1.51674 0.876312,2.93007 3.521432,4.69655 6.511982,4.34888 0.93881,-0.10915 1.74219,-0.39702 2.55324,-0.91492 0.16907,-0.10796 0.3271,-0.19629 0.35117,-0.19629 0.10097,0 1.14301,1.10925 1.08949,1.15976 -0.031,0.0292 -0.26632,0.18937 -0.523,0.35589 -0.8701,0.56447 -1.80864,0.94897 -2.78689,1.14173 -0.67328,0.13267 -1.92967,0.15932 -2.58005,0.0547 z"
       id="path8" /><text
       xml:space="preserve"
       transform="matrix(0.26458333,0,0,0.26458333,9.7081433,7.1564997)"
       id="text1"
       style="font-size:24px;line-height:0.9;font-family:'DejaVu Sans';-inkscape-font-specification:'DejaVu Sans';text-align:start;writing-mode:lr-tb;direction:ltr;white-space:pre;shape-inside:url(#rect1);fill:#3771c8;stroke-width:2.67213;stroke-linecap:round;stroke-linejoin:round;paint-order:stroke fill markers"><tspan
         x="346.26562"
         y="542.77807"
         id="tspan3"><tspan
           style="font-weight:bold;font-family:'Droid Sans';-inkscape-font-specification:'Droid Sans Bold'"
           id="tspan2">TB</tspan></tspan></text></g></svg>
